<svg width="134" height="30" viewBox="0 0 134 30" fill="none" xmlns="http://www.w3.org/2000/svg">
<path d="M22.3866 2.31562C26.5349 4.33657 29.9032 8.48485 30.6832 12.4204L30.9314 13.555H25.9676H21.0393L20.4366 12.5268C19.7275 11.3213 17.2456 10.0094 15.721 10.0094C12.601 10.0449 9.87089 12.8104 9.83544 15.9659C9.83544 18.9087 11.3955 20.9651 14.2319 21.7451C16.6783 22.3833 19.4438 21.2842 20.7202 19.1569L21.2875 18.1642H26.2158H31.1086L30.7541 19.6533C30.1868 22.3479 28.7686 24.8652 26.7122 27.028C25.6131 28.198 24.5849 29.1553 24.443 29.1553C24.3367 29.1553 23.7339 28.4462 23.0957 27.5598C21.1811 24.8652 17.2456 23.447 13.6292 24.1916C11.4309 24.6525 9.09088 26.248 7.95631 28.0207C7.5663 28.6235 7.06992 29.1198 6.85719 29.1553C6.219 29.1553 2.60255 25.1843 1.78708 23.5534C-2.64484 14.8668 1.46798 4.72659 10.7927 1.39378C12.14 0.932865 13.4164 0.791039 16.1465 0.86195C19.4438 0.968315 19.9048 1.07468 22.3866 2.31562Z" fill="#016FED"/>
<path d="M37.207 13.4131C37.526 14.2641 37.597 14.2641 38.1642 13.7322C38.9797 12.8813 40.2207 12.4913 42.0289 12.4913H43.5889V14.4059V16.285L41.7452 16.4978C38.6252 16.8878 37.9515 18.2351 37.9161 24.0852V27.3825H35.7887H33.6614V19.9369V12.4913H35.2569C36.6751 12.4913 36.9233 12.5977 37.207 13.4131Z" fill="#016FED"/>
<path d="M55.9983 12.9168C58.9411 14.4413 59.5084 16.0368 59.5438 22.8443V27.3825H57.8065C56.3883 27.3825 56.0337 27.2762 55.8919 26.6734C55.7146 25.9998 55.6437 25.9998 53.6937 26.8862C49.2972 28.9071 44.6526 26.9216 44.6526 23.057C44.6526 21.4615 45.3262 20.2915 46.7444 19.3342C47.8081 18.6251 48.3754 18.5187 51.4245 18.5187C54.8283 18.5187 54.9346 18.4833 54.9346 17.7032C54.9346 16.6041 54.5446 16.1432 53.3746 15.6823C52.1691 15.2568 50.1482 15.7532 49.8291 16.5687C49.6872 16.9587 49.049 17.1005 47.489 17.1005C45.3971 17.1005 45.3262 17.065 45.539 16.285C46.2835 13.7677 48.9072 12.1367 52.2755 12.1367C53.8 12.1367 54.8637 12.3495 55.9983 12.9168Z" fill="#016FED"/>
<path d="M71.9532 7.52755V9.30032H70.2159C68.3013 9.30032 67.8049 9.65487 67.4858 11.3567L67.2731 12.4913H70.4286C74.1514 12.4913 74.7542 12.1722 75.0378 10.0803L75.2505 8.59121H76.9524H78.6897V10.5413V12.4913H80.817H82.9443V14.2641V16.0368H80.817H78.6897V18.9796C78.6897 22.7379 79.1506 23.4824 81.3843 23.4824H82.9443V25.4325V27.3825H80.7461C78.0515 27.3825 76.3851 26.638 75.2505 24.9361C74.5414 23.8725 74.4351 23.3052 74.4351 19.9015V16.0368H71.0668H67.6985V21.7097V27.3825H65.3939H63.0893V21.7097V16.0368H61.6711H60.2529V14.2641V12.4913H61.6711C62.983 12.4913 63.0893 12.4204 63.0893 11.4985C63.0893 9.8676 63.763 8.05938 64.6494 7.20845C65.7485 6.18025 67.0249 5.8257 69.755 5.79024L71.9532 5.75478V7.52755Z" fill="#016FED"/>
<path d="M94.7864 12.5268C96.4883 12.9877 98.722 15.0795 99.4311 16.8168L99.9629 18.1642H97.9065C96.1692 18.1642 95.7083 18.0223 94.9991 17.2778C92.9427 15.0795 89.6099 15.5405 88.4044 18.1996C87.1635 21.0006 89.0072 23.837 92.0918 23.837C93.4391 23.837 93.8291 23.6597 94.8573 22.5961C95.921 21.4615 96.2046 21.3551 97.9774 21.3551C99.112 21.3551 99.9629 21.4969 99.9629 21.7097C99.9629 22.5961 98.4738 24.9361 97.2328 25.9289C94.7864 27.9498 91.1345 28.3398 88.0854 26.8862C85.9935 25.9289 85.3553 25.2552 84.398 23.1279C83.4762 21.1069 83.4762 18.7669 84.398 16.7459C85.3553 14.6186 85.9935 13.945 88.0854 12.9877C90.0354 12.0658 92.5173 11.8886 94.7864 12.5268Z" fill="#016FED"/>
<path d="M131.412 13.0586C131.979 13.4486 132.759 14.4768 133.22 15.3277C133.929 16.7459 134 17.3841 134 22.1351V27.3825H131.873H129.745V23.0215C129.745 19.6178 129.604 18.4478 129.107 17.4905C128.114 15.4695 125.668 15.3632 124.285 17.2069C123.647 18.0932 123.541 18.8023 123.399 22.8088L123.293 27.3825H121.201H119.109V19.9369V12.4913H120.74C122.052 12.4913 122.406 12.6331 122.548 13.2004C122.761 13.9804 123.186 14.1222 123.576 13.5195C124.498 12.0304 129.604 11.7467 131.412 13.0586Z" fill="#016FED"/>
<path d="M112.124 12.5268C113.861 12.9877 115.847 14.7604 116.662 16.5687C117.513 18.4123 117.513 21.4615 116.662 23.3052C115.28 26.3898 112.301 27.9144 108.259 27.6662C102.587 27.3116 99.112 21.8161 101.417 16.7459C102.374 14.6186 103.012 13.945 105.104 12.9877C107.054 12.0658 109.819 11.8886 112.124 12.5268Z" fill="#016FED"/>
<path d="M49.4743 21.9225C49.1552 22.2062 48.907 22.7025 48.907 22.9507C48.907 23.6244 50.2897 24.5462 51.3179 24.5462C52.9489 24.5462 54.9344 23.0216 54.9344 21.7452C54.9344 21.107 50.1125 21.2489 49.4743 21.9225Z" fill="white"/>
<path d="M107.409 16.2852C105.636 17.2071 104.714 19.1926 105.246 21.0008C105.813 22.9154 107.089 23.8372 109.146 23.8372C111.486 23.8018 113.081 22.2772 113.081 20.0435C113.081 16.8525 110.139 14.9025 107.409 16.2852Z" fill="white"/>
</svg>
