<svg width="518" height="384" viewBox="0 0 518 384" fill="none" xmlns="http://www.w3.org/2000/svg">
<g clip-path="url(#clip0_485_11391)">
<path d="M430.114 56.0659H47.6084V80.5713H430.114V56.0659Z" fill="#E0E0E0"/>
<path d="M430.056 103.08H47.5498V317.601H430.056V103.08Z" fill="white"/>
<path d="M47.6084 80.3852H100.133L105.329 65.2357H190.472L195.669 80.3852H430.114V103.599H47.6084V80.3852Z" fill="#EBEBEB"/>
<path d="M60.233 65.8427C60.233 66.4117 60.0642 66.968 59.7481 67.4412C59.4319 67.9143 58.9826 68.2831 58.4568 68.5009C57.9311 68.7186 57.3526 68.7756 56.7944 68.6646C56.2363 68.5536 55.7236 68.2796 55.3212 67.8772C54.9189 67.4748 54.6448 66.9621 54.5338 66.404C54.4228 65.8459 54.4798 65.2673 54.6975 64.7416C54.9153 64.2158 55.2841 63.7665 55.7572 63.4503C56.2304 63.1342 56.7867 62.9654 57.3558 62.9654C57.734 62.9641 58.1087 63.0377 58.4583 63.1818C58.808 63.3259 59.1257 63.5378 59.3931 63.8053C59.6606 64.0727 59.8725 64.3904 60.0166 64.7401C60.1607 65.0897 60.2343 65.4644 60.233 65.8427Z" fill="#263238"/>
<path d="M69.1304 65.8427C69.1304 66.4117 68.9617 66.968 68.6455 67.4412C68.3294 67.9143 67.88 68.2831 67.3543 68.5009C66.8285 68.7186 66.25 68.7756 65.6919 68.6646C65.1338 68.5536 64.6211 68.2796 64.2187 67.8772C63.8163 67.4748 63.5423 66.9621 63.4313 66.404C63.3202 65.8459 63.3772 65.2673 63.595 64.7416C63.8128 64.2158 64.1816 63.7665 64.6547 63.4503C65.1279 63.1342 65.6842 62.9654 66.2532 62.9654C66.6314 62.9641 67.0061 63.0377 67.3558 63.1818C67.7055 63.3259 68.0232 63.5378 68.2906 63.8053C68.558 64.0727 68.7699 64.3904 68.9141 64.7401C69.0582 65.0897 69.1317 65.4644 69.1304 65.8427Z" fill="#263238"/>
<path d="M78.025 65.8427C78.025 66.4117 77.8562 66.968 77.5401 67.4412C77.2239 67.9143 76.7746 68.2831 76.2488 68.5009C75.7231 68.7186 75.1446 68.7756 74.5864 68.6646C74.0283 68.5536 73.5156 68.2796 73.1132 67.8772C72.7108 67.4748 72.4368 66.9621 72.3258 66.404C72.2148 65.8459 72.2718 65.2673 72.4895 64.7416C72.7073 64.2158 73.0761 63.7665 73.5492 63.4503C74.0224 63.1342 74.5787 62.9654 75.1477 62.9654C75.5259 62.9641 75.9007 63.0377 76.2503 63.1818C76.6 63.3259 76.9177 63.5378 77.1851 63.8053C77.4526 64.0727 77.6645 64.3904 77.8086 64.7401C77.9527 65.0897 78.0263 65.4644 78.025 65.8427Z" fill="#263238"/>
<path d="M387.836 98.9796H125.411C123.48 98.9796 121.628 98.2125 120.262 96.847C118.897 95.4815 118.13 93.6295 118.13 91.6984C118.13 89.7673 118.897 87.9154 120.262 86.5499C121.628 85.1844 123.48 84.4173 125.411 84.4173H387.836C389.768 84.4173 391.62 85.1844 392.985 86.5499C394.35 87.9154 395.118 89.7673 395.118 91.6984C395.118 93.6295 394.35 95.4815 392.985 96.847C391.62 98.2125 389.768 98.9796 387.836 98.9796Z" fill="#FAFAFA"/>
<path d="M131.696 92.6673V95.1335H130.453V92.863C130.453 92.1682 130.13 91.8844 129.582 91.8844C129.034 91.8844 128.545 92.2562 128.545 93.0392V95.1726H127.302V89.2029H128.545V91.2776C128.919 90.9374 129.409 90.755 129.915 90.7687C130.163 90.7521 130.412 90.7908 130.644 90.8821C130.876 90.9734 131.084 91.1149 131.255 91.2965C131.425 91.4782 131.553 91.6953 131.629 91.9323C131.706 92.1694 131.728 92.4204 131.696 92.6673Z" fill="#E0E0E0"/>
<path d="M135.589 94.9182C135.297 95.1048 134.957 95.2002 134.61 95.1922C134.398 95.2214 134.181 95.202 133.978 95.1355C133.774 95.069 133.587 94.9571 133.433 94.8083C133.278 94.6594 133.16 94.4775 133.086 94.2762C133.012 94.0749 132.984 93.8594 133.005 93.6459V91.8843H132.34V90.9057H133.005V89.8585H134.248V90.9057H135.315V91.8843H134.248V93.6459C134.238 93.7204 134.244 93.7963 134.267 93.868C134.29 93.9396 134.328 94.0052 134.38 94.0598C134.432 94.1144 134.495 94.1566 134.566 94.1832C134.636 94.2098 134.712 94.2202 134.786 94.2135C134.967 94.2157 135.143 94.1571 135.286 94.0472L135.589 94.9182Z" fill="#E0E0E0"/>
<path d="M138.937 94.9182C138.644 95.1026 138.304 95.1978 137.958 95.1922C137.745 95.2214 137.529 95.202 137.325 95.1355C137.121 95.069 136.935 94.9571 136.781 94.8083C136.626 94.6594 136.507 94.4775 136.433 94.2762C136.359 94.0749 136.332 93.8594 136.353 93.6459V91.8843H135.688V90.9057H136.353V89.8585H137.596V90.9057H138.672V91.8843H137.596V93.6459C137.587 93.7201 137.595 93.7952 137.618 93.8661C137.642 93.9369 137.681 94.0017 137.732 94.0559C137.783 94.11 137.846 94.1522 137.915 94.1795C137.985 94.2067 138.06 94.2184 138.134 94.2135C138.317 94.2157 138.496 94.1572 138.643 94.0472L138.937 94.9182Z" fill="#E0E0E0"/>
<path d="M144.36 92.9803C144.377 93.2696 144.335 93.5594 144.234 93.8312C144.134 94.103 143.978 94.3509 143.776 94.5591C143.574 94.7672 143.331 94.931 143.063 95.04C142.794 95.149 142.506 95.2007 142.216 95.192C141.976 95.2034 141.737 95.1629 141.514 95.0734C141.291 94.9839 141.09 94.8475 140.925 94.6734V96.6307H139.682V90.7587H140.895V91.2579C141.064 91.0699 141.273 90.9223 141.507 90.8257C141.741 90.7292 141.993 90.6863 142.246 90.7C142.539 90.6946 142.831 90.7512 143.101 90.8661C143.371 90.9811 143.613 91.1518 143.813 91.367C144.013 91.5823 144.164 91.8373 144.259 92.1153C144.353 92.3933 144.387 92.6881 144.36 92.9803ZM143.097 92.9803C143.078 92.7687 142.998 92.5672 142.867 92.4003C142.735 92.2333 142.558 92.1082 142.357 92.04C142.156 91.9719 141.939 91.9636 141.733 92.0163C141.528 92.069 141.342 92.1804 141.198 92.3369C141.054 92.4934 140.959 92.6882 140.924 92.8978C140.889 93.1073 140.916 93.3225 141.001 93.5171C141.086 93.7118 141.226 93.8775 141.403 93.9942C141.581 94.1108 141.789 94.1734 142.001 94.1742C142.154 94.1764 142.306 94.1462 142.446 94.0856C142.587 94.025 142.713 93.9354 142.816 93.8227C142.92 93.71 142.998 93.5766 143.047 93.4315C143.095 93.2863 143.112 93.1325 143.097 92.9803Z" fill="#E0E0E0"/>
<path d="M144.887 91.542C144.908 91.3506 144.999 91.174 145.143 91.0457C145.286 90.9174 145.472 90.8464 145.665 90.8464C145.857 90.8464 146.043 90.9174 146.187 91.0457C146.33 91.174 146.421 91.3506 146.443 91.542C146.455 91.6515 146.444 91.7623 146.411 91.8673C146.377 91.9723 146.322 92.069 146.248 92.1511C146.175 92.2333 146.085 92.299 145.984 92.344C145.884 92.389 145.775 92.4123 145.665 92.4123C145.555 92.4123 145.446 92.389 145.345 92.344C145.244 92.299 145.155 92.2333 145.081 92.1511C145.008 92.069 144.952 91.9723 144.919 91.8673C144.885 91.7623 144.874 91.6515 144.887 91.542ZM144.887 94.4094C144.908 94.2181 144.999 94.0414 145.143 93.9131C145.286 93.7848 145.472 93.7139 145.665 93.7139C145.857 93.7139 146.043 93.7848 146.187 93.9131C146.33 94.0414 146.421 94.2181 146.443 94.4094C146.455 94.5189 146.444 94.6298 146.411 94.7347C146.377 94.8397 146.322 94.9364 146.248 95.0186C146.175 95.1007 146.085 95.1665 145.984 95.2115C145.884 95.2565 145.775 95.2797 145.665 95.2797C145.555 95.2797 145.446 95.2565 145.345 95.2115C145.244 95.1665 145.155 95.1007 145.081 95.0186C145.008 94.9364 144.952 94.8397 144.919 94.7347C144.885 94.6298 144.874 94.5189 144.887 94.4094Z" fill="#E0E0E0"/>
<path d="M149.508 88.4003H150.623L147.981 95.9262H146.875L149.508 88.4003Z" fill="#E0E0E0"/>
<path d="M152.061 88.4003H153.167L150.535 95.9262H149.419L152.061 88.4003Z" fill="#E0E0E0"/>
<path d="M387.602 141.658H158.96C155.537 141.658 152.253 140.299 149.833 137.878C147.412 135.457 146.052 132.174 146.052 128.75C146.054 125.327 147.415 122.046 149.835 119.625C152.256 117.205 155.537 115.844 158.96 115.842H387.602C391.025 115.844 394.307 117.205 396.727 119.625C399.147 122.046 400.508 125.327 400.511 128.75C400.511 132.174 399.151 135.457 396.73 137.878C394.309 140.299 391.026 141.658 387.602 141.658Z" fill="#FAFAFA"/>
<path d="M387.604 141.659C389.428 141.619 391.225 141.213 392.888 140.465C394.525 139.711 395.988 138.626 397.184 137.279C398.38 135.931 399.283 134.35 399.837 132.635C400.301 131.105 400.48 129.503 400.365 127.908C400.244 126.123 399.751 124.383 398.917 122.8C397.984 121.065 396.669 119.566 395.071 118.416C393.324 117.157 391.287 116.363 389.15 116.106C388.014 116.009 386.874 115.976 385.734 116.008H382.172H349.299L158.981 116.077C156.696 116.083 154.454 116.705 152.492 117.877C150.565 119.028 148.978 120.671 147.895 122.638C146.812 124.604 146.272 126.824 146.329 129.068C146.387 131.312 147.041 133.501 148.224 135.409C149.407 137.317 151.076 138.876 153.06 139.926C155.02 140.942 157.205 141.447 159.412 141.394H223.2L308.764 141.453L366.504 141.531H382.162H386.243C387.163 141.531 387.633 141.531 387.633 141.531H386.243H382.162H366.504L308.764 141.619L223.2 141.668H172.662H159.412C157.122 141.727 154.855 141.202 152.825 140.142C150.226 138.767 148.162 136.563 146.962 133.879C145.762 131.196 145.495 128.188 146.203 125.334C146.911 122.481 148.554 119.947 150.87 118.136C153.186 116.326 156.041 115.342 158.981 115.343L349.348 115.666H382.221H385.783C386.936 115.637 388.089 115.673 389.238 115.773C391.413 116.044 393.484 116.862 395.257 118.151C396.811 119.265 398.098 120.71 399.026 122.383C399.953 124.055 400.498 125.912 400.62 127.82C400.723 129.44 400.53 131.065 400.052 132.616C399.608 133.97 398.947 135.242 398.095 136.384C396.767 138.183 394.998 139.609 392.957 140.523C391.713 141.07 390.393 141.423 389.042 141.57C388.073 141.659 387.604 141.659 387.604 141.659Z" fill="#263238"/>
<path d="M164.206 131.5L164.686 130.424C165.291 130.839 166.007 131.064 166.741 131.07C167.592 131.07 167.935 130.786 167.935 130.404C167.935 129.24 164.323 130.042 164.323 127.732C164.323 126.675 165.175 125.775 166.946 125.775C167.7 125.761 168.444 125.95 169.099 126.323L168.659 127.419C168.137 127.108 167.544 126.94 166.936 126.93C166.085 126.93 165.752 127.253 165.752 127.644C165.752 128.789 169.364 127.997 169.364 130.277C169.364 131.314 168.502 132.234 166.731 132.234C165.834 132.255 164.952 131.999 164.206 131.5Z" fill="#E0E0E0"/>
<path d="M174.902 130.12H171.291C171.363 130.421 171.541 130.686 171.793 130.866C172.045 131.046 172.353 131.129 172.661 131.099C172.882 131.106 173.101 131.068 173.307 130.987C173.512 130.906 173.699 130.784 173.855 130.629L174.589 131.432C174.216 131.791 173.75 132.038 173.244 132.146C172.737 132.255 172.211 132.219 171.723 132.044C171.236 131.869 170.807 131.562 170.485 131.156C170.163 130.75 169.961 130.263 169.902 129.748C169.897 129.417 169.961 129.088 170.088 128.782C170.216 128.477 170.404 128.2 170.643 127.97C170.881 127.74 171.164 127.561 171.474 127.444C171.784 127.328 172.115 127.276 172.446 127.292C172.776 127.275 173.106 127.328 173.414 127.446C173.723 127.564 174.003 127.746 174.237 127.979C174.472 128.212 174.654 128.492 174.774 128.8C174.893 129.108 174.947 129.438 174.932 129.768C174.932 129.856 174.912 130.003 174.902 130.12ZM171.272 129.308H173.62C173.57 129.033 173.425 128.785 173.21 128.606C172.996 128.427 172.725 128.329 172.446 128.329C172.167 128.329 171.896 128.427 171.682 128.606C171.467 128.785 171.322 129.033 171.272 129.308Z" fill="#E0E0E0"/>
<path d="M179.943 129.386V132.117H178.651V131.52C178.49 131.751 178.27 131.935 178.013 132.052C177.757 132.169 177.474 132.215 177.193 132.185C176.078 132.185 175.412 131.559 175.412 130.737C175.412 129.915 176.009 129.308 177.457 129.308H178.563C178.563 128.721 178.201 128.329 177.457 128.329C176.965 128.325 176.485 128.48 176.087 128.77L175.588 127.791C176.201 127.4 176.916 127.199 177.643 127.214C179.062 127.272 179.943 127.948 179.943 129.386ZM178.563 130.61V130.12H177.585C176.939 130.12 176.733 130.355 176.733 130.678C176.733 131.001 177.027 131.256 177.506 131.256C177.729 131.278 177.952 131.226 178.143 131.11C178.334 130.993 178.481 130.818 178.563 130.61Z" fill="#E0E0E0"/>
<path d="M184.161 127.272V128.545H183.847C183.674 128.53 183.499 128.555 183.336 128.616C183.173 128.678 183.026 128.775 182.905 128.901C182.784 129.026 182.693 129.177 182.637 129.342C182.582 129.508 182.564 129.683 182.585 129.856V132.117H181.195V127.341H182.516V127.967C182.716 127.729 182.969 127.542 183.255 127.421C183.541 127.301 183.851 127.25 184.161 127.272Z" fill="#E0E0E0"/>
<path d="M184.592 129.729C184.592 129.389 184.663 129.052 184.799 128.741C184.936 128.429 185.135 128.149 185.386 127.918C185.636 127.688 185.931 127.511 186.252 127.4C186.574 127.289 186.915 127.245 187.254 127.272C187.69 127.237 188.127 127.335 188.507 127.551C188.888 127.767 189.194 128.093 189.387 128.486L188.311 129.063C188.212 128.865 188.06 128.699 187.871 128.583C187.683 128.467 187.465 128.406 187.244 128.408C186.894 128.408 186.558 128.547 186.31 128.795C186.062 129.042 185.923 129.379 185.923 129.729C185.923 130.079 186.062 130.415 186.31 130.663C186.558 130.911 186.894 131.05 187.244 131.05C187.466 131.054 187.684 130.994 187.873 130.878C188.062 130.762 188.214 130.594 188.311 130.394L189.387 130.982C189.191 131.371 188.883 131.693 188.503 131.908C188.123 132.122 187.689 132.219 187.254 132.185C186.915 132.212 186.574 132.169 186.252 132.058C185.931 131.947 185.636 131.77 185.386 131.539C185.135 131.309 184.936 131.029 184.799 130.717C184.663 130.406 184.592 130.069 184.592 129.729Z" fill="#E0E0E0"/>
<path d="M195.035 129.386V132.117H193.645V129.592C193.645 128.819 193.293 128.466 192.667 128.466C192.04 128.466 191.522 128.877 191.522 129.758V132.117H190.132V125.53H191.522V127.84C191.724 127.649 191.962 127.501 192.223 127.403C192.483 127.306 192.761 127.261 193.038 127.272C193.316 127.251 193.596 127.292 193.856 127.392C194.116 127.493 194.35 127.65 194.541 127.852C194.733 128.055 194.876 128.298 194.962 128.563C195.047 128.829 195.072 129.11 195.035 129.386Z" fill="#E0E0E0"/>
<path d="M198.458 131.314C198.458 131.086 198.549 130.867 198.71 130.705C198.872 130.544 199.091 130.453 199.319 130.453C199.548 130.453 199.767 130.544 199.928 130.705C200.09 130.867 200.18 131.086 200.18 131.314C200.18 131.543 200.09 131.762 199.928 131.923C199.767 132.085 199.548 132.175 199.319 132.175C199.091 132.175 198.872 132.085 198.71 131.923C198.549 131.762 198.458 131.543 198.458 131.314Z" fill="#E0E0E0"/>
<path d="M200.789 131.314C200.791 131.144 200.843 130.979 200.939 130.838C201.035 130.698 201.17 130.589 201.328 130.526C201.485 130.462 201.658 130.446 201.824 130.481C201.991 130.515 202.143 130.598 202.263 130.719C202.382 130.839 202.463 130.993 202.496 131.16C202.528 131.326 202.511 131.499 202.445 131.656C202.38 131.813 202.269 131.947 202.128 132.041C201.987 132.135 201.82 132.185 201.651 132.185C201.536 132.187 201.423 132.165 201.317 132.122C201.211 132.078 201.115 132.014 201.035 131.933C200.955 131.851 200.891 131.755 200.849 131.648C200.807 131.542 200.787 131.429 200.789 131.314Z" fill="#E0E0E0"/>
<path d="M203.107 131.314C203.107 131.086 203.198 130.867 203.36 130.705C203.521 130.544 203.74 130.453 203.969 130.453C204.197 130.453 204.416 130.544 204.578 130.705C204.739 130.867 204.83 131.086 204.83 131.314C204.83 131.427 204.808 131.539 204.764 131.644C204.721 131.748 204.658 131.843 204.578 131.923C204.498 132.003 204.403 132.067 204.298 132.11C204.194 132.153 204.082 132.175 203.969 132.175C203.856 132.175 203.744 132.153 203.639 132.11C203.535 132.067 203.44 132.003 203.36 131.923C203.28 131.843 203.216 131.748 203.173 131.644C203.13 131.539 203.107 131.427 203.107 131.314Z" fill="#E0E0E0"/>
<path d="M119.433 164.109C119.433 164.256 110.253 164.363 98.9402 164.363C87.627 164.363 78.4473 164.256 78.4473 164.109C78.4473 163.962 87.6172 163.854 98.9402 163.854C110.263 163.854 119.433 163.991 119.433 164.109Z" fill="black"/>
<path d="M121.038 175.843H78.4473V218.434H121.038V175.843Z" fill="#238AFF"/>
<path d="M379.832 185.884C379.832 186.021 326.985 186.138 261.768 186.138C196.55 186.138 143.693 186.021 143.693 185.884C143.693 185.747 196.541 185.629 261.768 185.629C326.995 185.629 379.832 185.737 379.832 185.884Z" fill="black"/>
<path d="M208.284 201.914C208.284 202.061 194.348 202.169 177.173 202.169C159.998 202.169 146.052 202.061 146.052 201.914C146.052 201.767 159.978 201.66 177.173 201.66C194.368 201.66 208.284 201.777 208.284 201.914Z" fill="black"/>
<path d="M342.095 216.79C342.095 216.927 298.203 217.044 244.073 217.044C189.944 217.044 146.052 216.927 146.052 216.79C146.052 216.653 189.934 216.525 244.073 216.525C298.212 216.525 342.095 216.643 342.095 216.79Z" fill="#E0E0E0"/>
<path d="M119.433 240.444C119.433 240.581 110.253 240.698 98.9402 240.698C87.627 240.698 78.4473 240.581 78.4473 240.444C78.4473 240.307 87.6172 240.189 98.9402 240.189C110.263 240.189 119.433 240.277 119.433 240.444Z" fill="black"/>
<path d="M121.038 252.129H78.4473V294.72H121.038V252.129Z" fill="#238AFF"/>
<path d="M393.866 262.16C393.866 262.307 337.858 262.414 268.785 262.414C199.711 262.414 143.693 262.307 143.693 262.16C143.693 262.013 199.692 261.905 268.785 261.905C337.877 261.905 393.866 262.023 393.866 262.16Z" fill="black"/>
<path d="M208.284 278.2C208.284 278.337 194.348 278.455 177.173 278.455C159.998 278.455 146.052 278.337 146.052 278.2C146.052 278.063 159.978 277.946 177.173 277.946C194.368 277.946 208.284 278.063 208.284 278.2Z" fill="black"/>
<path d="M376.231 293.066C376.231 293.213 324.705 293.32 261.151 293.32C197.597 293.32 146.052 293.213 146.052 293.066C146.052 292.919 197.578 292.811 261.151 292.811C324.724 292.811 376.231 292.929 376.231 293.066Z" fill="#E0E0E0"/>
<path d="M430.116 318.119C430.116 316.436 430.037 215.556 429.91 56.0656L430.116 56.2712H47.6391L47.8936 56.0167C47.8936 149.556 47.8936 238.428 47.8936 318.07L47.6587 317.835L430.165 318.07L47.6587 318.295H47.4238V318.07C47.4238 238.428 47.4238 149.556 47.4238 56.0167V55.7623H47.7076H430.184H430.39V55.9678C430.204 215.556 430.116 316.436 430.116 318.119Z" fill="#263238"/>
<path d="M180.139 75.0516C180.139 75.1984 166.634 75.3061 149.977 75.3061C133.321 75.3061 119.815 75.1984 119.815 75.0516C119.815 74.9048 133.321 74.7971 149.977 74.7971C166.634 74.7971 180.139 74.9146 180.139 75.0516Z" fill="black"/>
<path d="M125.725 123.221H72.1533V139.359H125.725V123.221Z" fill="#455A64"/>
<path d="M220.586 165.489C220.586 165.635 203.949 165.743 183.398 165.743C162.846 165.743 146.209 165.635 146.209 165.489C146.209 165.342 162.846 165.234 183.398 165.234C203.949 165.234 220.586 165.352 220.586 165.489Z" fill="#238AFF"/>
<path d="M220.586 240.444C220.586 240.581 203.949 240.698 183.398 240.698C162.846 240.698 146.209 240.581 146.209 240.444C146.209 240.307 162.846 240.189 183.398 240.189C203.949 240.189 220.586 240.277 220.586 240.444Z" fill="#238AFF"/>
<path d="M382.68 133.046C381.448 133.048 380.244 132.685 379.219 132.002C378.194 131.318 377.394 130.346 376.922 129.209C376.45 128.071 376.326 126.819 376.565 125.61C376.805 124.402 377.398 123.292 378.269 122.421C379.14 121.55 380.25 120.957 381.459 120.717C382.667 120.477 383.919 120.601 385.057 121.074C386.195 121.546 387.167 122.345 387.85 123.37C388.533 124.395 388.897 125.6 388.895 126.832C388.892 128.479 388.237 130.059 387.072 131.223C385.907 132.388 384.328 133.044 382.68 133.046ZM382.68 121.586C381.642 121.584 380.627 121.89 379.763 122.466C378.899 123.041 378.226 123.859 377.827 124.818C377.429 125.776 377.323 126.831 377.525 127.849C377.726 128.868 378.225 129.803 378.958 130.538C379.691 131.272 380.626 131.773 381.644 131.976C382.661 132.179 383.717 132.076 384.676 131.679C385.635 131.282 386.455 130.61 387.031 129.747C387.608 128.884 387.916 127.87 387.916 126.832C387.916 125.442 387.365 124.11 386.383 123.126C385.402 122.143 384.07 121.589 382.68 121.586Z" fill="#238AFF"/>
<path d="M390.324 135.806C390.192 135.806 390.065 135.753 389.972 135.659L385.92 131.637C385.875 131.592 385.838 131.537 385.814 131.478C385.789 131.418 385.776 131.354 385.776 131.29C385.776 131.225 385.789 131.161 385.814 131.102C385.838 131.042 385.875 130.988 385.92 130.942C385.966 130.897 386.02 130.861 386.08 130.836C386.139 130.811 386.203 130.798 386.268 130.798C386.332 130.798 386.396 130.811 386.456 130.836C386.515 130.861 386.569 130.897 386.615 130.942L390.667 134.965C390.733 135.034 390.777 135.121 390.795 135.216C390.812 135.31 390.803 135.407 390.766 135.496C390.73 135.584 390.669 135.661 390.591 135.716C390.513 135.771 390.42 135.802 390.324 135.806Z" fill="#238AFF"/>
<path d="M287.576 200.818C287.576 200.955 271.555 201.072 251.786 201.072C232.018 201.072 215.987 200.955 215.987 200.818C215.987 200.681 232.018 200.564 251.786 200.564C271.555 200.564 287.576 200.671 287.576 200.818Z" fill="black"/>
<path d="M333.837 199.712C333.837 199.859 325.45 199.967 315.115 199.967C304.781 199.967 296.384 199.859 296.384 199.712C296.384 199.565 304.771 199.458 315.115 199.458C325.46 199.458 333.837 199.575 333.837 199.712Z" fill="black"/>
<path d="M287.232 278.2C287.232 278.337 271.211 278.455 251.443 278.455C231.674 278.455 215.653 278.337 215.653 278.2C215.653 278.063 231.674 277.946 251.443 277.946C271.211 277.946 287.232 278.063 287.232 278.2Z" fill="black"/>
<path d="M388.42 118.229C381.147 114.749 374.798 109.601 369.891 103.204C364.983 96.8059 361.657 89.3396 360.182 81.4127C358.706 73.4859 359.124 65.3227 361.401 57.588C363.679 49.8532 367.751 42.7658 373.286 36.9028C378.821 31.0398 385.662 26.567 393.253 23.8489C400.844 21.1307 408.97 20.244 416.968 21.261C424.967 22.2779 432.612 25.1697 439.281 29.7009C445.951 34.2321 451.455 40.2746 455.347 47.3361C460.589 56.8325 462.678 67.7484 461.313 78.5089C459.948 89.2695 455.2 99.3182 447.754 107.205C440.308 115.093 430.549 120.411 419.885 122.392C409.22 124.373 398.202 122.915 388.42 118.229ZM431.102 28.9595C420.829 24.0557 409.142 22.9833 398.148 25.9358C387.154 28.8883 377.577 35.6714 371.142 45.062C364.708 54.4527 361.841 65.8331 363.057 77.1515C364.273 88.4699 369.492 98.9815 377.774 106.791C386.056 114.601 396.856 119.195 408.226 119.744C419.597 120.294 430.789 116.764 439.786 109.79C448.783 102.816 454.993 92.8567 457.295 81.7084C459.597 70.5602 457.841 58.9562 452.343 48.9885C447.528 40.2579 440.1 33.2539 431.102 28.9595Z" fill="#263238"/>
<path d="M474.826 174.25C473.388 175.134 471.659 175.412 470.017 175.023C468.374 174.635 466.953 173.611 466.063 172.177L432.585 117.908C432.432 117.662 432.384 117.366 432.449 117.085C432.515 116.803 432.69 116.559 432.935 116.406L440.076 112C440.319 111.851 440.61 111.802 440.889 111.864C441.167 111.926 441.41 112.093 441.568 112.33L476.779 165.237C477.263 165.95 477.597 166.755 477.761 167.601C477.925 168.448 477.916 169.319 477.733 170.162C477.551 171.004 477.199 171.801 476.699 172.504C476.199 173.207 475.562 173.801 474.826 174.25Z" fill="#263238"/>
<path d="M389.653 115.645C382.375 112.168 376.021 107.02 371.11 100.621C366.198 94.2228 362.868 86.7545 361.39 78.8249C359.912 70.8952 360.329 62.7286 362.606 54.9905C364.882 47.2523 368.955 40.1615 374.492 34.2958C380.029 28.4301 386.873 23.9554 394.467 21.2363C402.061 18.5173 410.19 17.6308 418.192 18.6491C426.193 19.6674 433.841 22.5616 440.512 27.096C447.183 31.6305 452.689 37.6768 456.58 44.7423C461.817 54.2392 463.904 65.1542 462.538 75.9134C461.172 86.6726 456.425 96.7201 448.98 104.607C441.535 112.494 431.778 117.813 421.116 119.797C410.453 121.78 399.436 120.327 389.653 115.645ZM432.335 26.3757C422.061 21.4718 410.374 20.3995 399.38 23.352C388.387 26.3045 378.809 33.0876 372.375 42.4782C365.941 51.8689 363.073 63.2493 364.289 74.5677C365.505 85.8861 370.725 96.3976 379.007 104.207C387.289 112.017 398.089 116.611 409.459 117.161C420.829 117.71 432.022 114.18 441.019 107.206C450.016 100.232 456.225 90.2728 458.527 79.1246C460.83 67.9764 459.074 56.3724 453.575 46.4047C448.76 37.6741 441.333 30.6701 432.335 26.3757Z" fill="#455A64"/>
<path d="M433.243 114.327L442.218 108.791L477.819 166.501C478.516 167.632 478.736 168.993 478.43 170.285C478.124 171.577 477.317 172.695 476.186 173.392L475.666 173.713C474.536 174.41 473.175 174.63 471.883 174.323C470.591 174.017 469.473 173.21 468.776 172.08L433.175 114.369L433.243 114.327Z" fill="#455A64"/>
<path d="M373.509 57.3004C373.556 56.7658 373.65 56.2364 373.789 55.7181C373.908 55.1013 374.065 54.4925 374.26 53.8955C374.486 53.0912 374.754 52.299 375.061 51.522L375.572 50.1701C375.762 49.6994 376.012 49.2387 376.243 48.738C376.693 47.7365 377.304 46.7351 377.915 45.6836C379.336 43.4282 380.98 41.3212 382.822 39.3944C384.699 37.5056 386.759 35.8081 388.971 34.3271C389.943 33.693 390.945 33.1081 391.976 32.5746C392.456 32.3242 392.917 32.0638 393.378 31.8535L394.72 31.2827C395.485 30.9538 396.267 30.6663 397.063 30.4215C397.655 30.2082 398.261 30.0343 398.876 29.9007C399.391 29.7544 399.917 29.6439 400.448 29.5702C399.954 29.7787 399.445 29.9495 398.926 30.081C398.324 30.2468 397.732 30.4475 397.153 30.6818C396.373 30.9482 395.607 31.2557 394.86 31.6032L393.548 32.194C393.087 32.4043 392.636 32.6747 392.166 32.9251C391.164 33.4158 390.243 34.0567 389.212 34.6976C387.052 36.1695 385.04 37.8463 383.203 39.7049C381.384 41.6048 379.751 43.6739 378.326 45.8838C377.715 46.8853 377.094 47.8867 376.633 48.8882C376.403 49.3689 376.143 49.8195 375.942 50.2802L375.381 51.6121C375.001 52.4433 374.771 53.2445 374.52 53.9355C374.305 54.522 374.125 55.1205 373.979 55.7281C373.865 56.2639 373.707 56.7897 373.509 57.3004Z" fill="#E0E0E0"/>
</g>
<defs>
<clipPath id="clip0_485_11391">
<rect width="518" height="383.028" fill="white"/>
</clipPath>
</defs>
</svg>
