<svg width="51" height="51" viewBox="0 0 51 51" fill="none" xmlns="http://www.w3.org/2000/svg">
<path opacity="0.4" fill-rule="evenodd" clip-rule="evenodd" d="M20.1617 34.9964C19.4703 35.3619 19.4325 35.4972 19.371 37.8306C19.3104 40.1328 19.2456 40.4217 18.6505 41.0489C18.2479 41.4734 17.4502 41.8548 16.9624 41.856C16.1802 41.8581 15.4741 42.4031 15.3421 43.1069C15.2456 43.6216 15.5318 44.2897 15.9788 44.5936C16.6376 45.0412 18.1646 44.8723 19.4261 44.2124C20.1606 43.8281 21.2197 42.792 21.6456 42.0412C22.2102 41.0457 22.3588 40.2027 22.3588 37.9953C22.3588 36.2385 22.3393 36.014 22.154 35.6312C22.0053 35.324 21.8333 35.152 21.5261 35.0033C21.0061 34.7516 20.6287 34.7497 20.1617 34.9964ZM24.8048 35.0238C24.0462 35.4587 24.0489 35.442 24.0491 39.8174C24.0492 44.1428 24.0513 44.1572 24.7346 44.6137C25.4426 45.0867 26.4716 44.8096 26.8572 44.0421C27.0138 43.7304 27.031 43.3117 27.0311 39.8174C27.0313 36.2311 27.0174 35.9125 26.847 35.5922C26.623 35.1713 26.012 34.8018 25.5401 34.8018C25.3487 34.8018 25.0179 34.9017 24.8048 35.0238ZM29.5466 35.0053C29.2485 35.1528 29.0708 35.3323 28.9253 35.6331C28.7411 36.0136 28.7214 36.2414 28.7214 37.9953C28.7214 40.2027 28.87 41.0457 29.4346 42.0412C29.8605 42.792 30.9197 43.8281 31.6541 44.2124C32.9156 44.8723 34.4426 45.0412 35.1014 44.5936C35.5484 44.2897 35.8347 43.6216 35.7381 43.1069C35.6061 42.4031 34.9001 41.8581 34.1179 41.856C33.63 41.8548 32.8323 41.4734 32.4297 41.0489C31.8346 40.4217 31.7699 40.1328 31.7092 37.8306C31.6474 35.485 31.6102 35.3553 30.8973 34.9915C30.4124 34.7442 30.0669 34.7478 29.5466 35.0053Z" fill="#016FED"/>
<path fill-rule="evenodd" clip-rule="evenodd" d="M4.97825 6.21157C4.68707 6.28206 4.06572 6.5295 3.59748 6.76154C2.11192 7.49771 0.987231 8.81555 0.372647 10.5402L0.142401 11.1864L0.112179 19.3017C0.0780794 28.4345 0.0647577 28.2318 0.79874 29.7273C1.5703 31.2994 3.12665 32.5792 4.86144 33.068C5.18534 33.1593 6.02619 33.2447 6.92431 33.2775L8.44039 33.3329L8.44188 31.1573C8.44357 28.6793 8.53135 28.1282 9.11343 26.9437C9.64988 25.852 10.7914 24.725 11.9199 24.1725C13.4236 23.4364 12.8205 23.4677 25.5398 23.4677C38.2591 23.4677 37.656 23.4364 39.1597 24.1725C40.2882 24.725 41.4297 25.852 41.9662 26.9437C42.5483 28.1282 42.636 28.6793 42.6377 31.1573L42.6392 33.3329L44.1553 33.2775C45.0534 33.2447 45.8943 33.1593 46.2182 33.068C47.953 32.5792 49.5093 31.2994 50.2809 29.7273C51.0149 28.2318 51.0015 28.4345 50.9674 19.3017L50.9372 11.1864L50.707 10.5402C50.0744 8.76505 48.9545 7.47583 47.3947 6.72744C46.8843 6.48248 46.2296 6.23364 45.9399 6.17429C45.1124 6.00499 5.68371 6.04087 4.97825 6.21157ZM36.3382 11.9879C37.0481 12.5187 37.2461 13.2845 36.8509 13.97C36.4687 14.6329 36.1603 14.7274 34.4872 14.6944C33.2267 14.6695 33.0126 14.641 32.7818 14.4671C32.0758 13.9351 31.9608 12.9865 32.5168 12.2798C32.8886 11.8071 33.2082 11.7308 34.704 11.7581C35.8997 11.7799 36.0972 11.8077 36.3382 11.9879ZM43.4326 11.9074C43.6228 12.0029 43.884 12.2377 44.013 12.4291C44.3328 12.9036 44.2883 13.7884 43.9254 14.1769C43.4753 14.6587 43.2468 14.7156 41.7642 14.7156C40.4927 14.7156 40.3551 14.6976 40.0443 14.49C39.0908 13.853 39.1747 12.4394 40.196 11.9339C40.7556 11.6569 42.8991 11.6393 43.4326 11.9074ZM14.1181 26.5541C13.1464 26.745 12.1133 27.5665 11.7017 28.4755C11.489 28.9454 11.4703 29.1366 11.4407 31.144L11.4089 33.3063H25.5398H39.6707L39.6389 31.144C39.6093 29.1366 39.5907 28.9454 39.3779 28.4755C39.1157 27.8964 38.4012 27.155 37.8152 26.8542C37.5952 26.7413 37.1754 26.6033 36.8821 26.5477C36.2224 26.4227 14.7569 26.4286 14.1181 26.5541Z" fill="#016FED"/>
</svg>
