<svg width="19" height="19" viewBox="0 0 19 19" fill="none" xmlns="http://www.w3.org/2000/svg">
<path d="M6.33333 6.33333H4.90833C4.02158 6.33333 3.57821 6.33333 3.23952 6.50591C2.94159 6.65771 2.69937 6.89993 2.54757 7.19785C2.375 7.53654 2.375 7.97992 2.375 8.86667V14.0917C2.375 14.9784 2.375 15.4218 2.54757 15.7605C2.69937 16.0584 2.94159 16.3006 3.23952 16.4524C3.57821 16.625 4.02158 16.625 4.90833 16.625H6.33333M6.33333 6.33333H12.6667M6.33333 6.33333V5.54167C6.33333 3.79277 7.7511 2.375 9.5 2.375C11.2489 2.375 12.6667 3.79277 12.6667 5.54167V6.33333M6.33333 6.33333V16.625M12.6667 6.33333H14.0917C14.9784 6.33333 15.4218 6.33333 15.7605 6.50591C16.0584 6.65771 16.3006 6.89993 16.4524 7.19785C16.625 7.53654 16.625 7.97992 16.625 8.86667V14.0917C16.625 14.9784 16.625 15.4218 16.4524 15.7605C16.3006 16.0584 16.0584 16.3006 15.7605 16.4524C15.4218 16.625 14.9784 16.625 14.0917 16.625H12.6667M12.6667 6.33333V16.625M6.33333 16.625H12.6667" stroke="#667085" stroke-width="0.971429" stroke-linecap="round"/>
</svg>
