<svg width="19" height="19" viewBox="0 0 19 19" fill="none" xmlns="http://www.w3.org/2000/svg">
<path d="M1.58301 6.33334H17.4163M4.74967 12.6667H7.91634M11.083 12.6667H14.2497M4.11634 15.8333H14.883C15.7698 15.8333 16.2131 15.8333 16.5518 15.6608C16.8497 15.509 17.092 15.2667 17.2438 14.9688C17.4163 14.6301 17.4163 14.1868 17.4163 13.3V5.7C17.4163 4.81326 17.4163 4.36988 17.2438 4.03119C17.092 3.73326 16.8497 3.49104 16.5518 3.33924C16.2131 3.16667 15.7698 3.16667 14.883 3.16667H4.11634C3.22959 3.16667 2.78622 3.16667 2.44752 3.33924C2.1496 3.49104 1.90738 3.73326 1.75558 4.03119C1.58301 4.36988 1.58301 4.81326 1.58301 5.7V13.3C1.58301 14.1868 1.58301 14.6301 1.75558 14.9688C1.90738 15.2667 2.1496 15.509 2.44752 15.6608C2.78622 15.8333 3.22959 15.8333 4.11634 15.8333Z" stroke="#667085" stroke-width="0.971429" stroke-linecap="round"/>
</svg>
