<svg width="70" height="70" viewBox="0 0 70 70" fill="none" xmlns="http://www.w3.org/2000/svg">
<path d="M58.3333 43.75H52.5V37.9167H58.3333C59.9375 37.9167 61.25 39.2292 61.25 40.8333C61.25 42.4375 59.9375 43.75 58.3333 43.75ZM58.3333 55.4167H52.5V49.5833H58.3333C59.9375 49.5833 61.25 50.8958 61.25 52.5C61.25 54.1042 59.9375 55.4167 58.3333 55.4167ZM40.8333 35C37.625 35 35 37.625 35 40.8333H29.1666V52.5H35C35 55.7083 37.625 58.3333 40.8333 58.3333H49.5833V35H40.8333Z" fill="#016FED"/>
<path d="M11.6667 14.5834C11.6667 16.1876 12.9792 17.5001 14.5833 17.5001H24.7917C27.2125 17.5001 29.1667 19.4542 29.1667 21.8751C29.1667 24.2959 27.2125 26.2501 24.7917 26.2501H20.4167C13.9708 26.2501 8.75 31.4709 8.75 37.9167C8.75 44.3626 13.9708 49.5834 20.4167 49.5834H26.25V43.7501H20.4167C17.2083 43.7501 14.5833 41.1251 14.5833 37.9167C14.5833 34.7084 17.2083 32.0834 20.4167 32.0834H24.7917C30.4208 32.0834 35 27.5042 35 21.8751C35 16.2459 30.4208 11.6667 24.7917 11.6667H14.5833C12.9792 11.6667 11.6667 12.9792 11.6667 14.5834Z" fill="#016FED"/>
</svg>
