<svg width="23" height="23" viewBox="0 0 23 23" fill="none" xmlns="http://www.w3.org/2000/svg">
<path fill-rule="evenodd" clip-rule="evenodd" d="M21.2773 13.0984L21.274 13.1019C20.7324 13.6672 20.1722 14.2519 19.8749 14.9698C19.5894 15.6608 19.577 16.4504 19.5656 17.215C19.5543 18.008 19.5418 18.8384 19.1895 19.1895C18.8372 19.5407 18.0125 19.5543 17.215 19.5656C16.4504 19.577 15.6608 19.5894 14.9698 19.8749C14.2519 20.1722 13.6672 20.7324 13.1019 21.274L13.0984 21.2773L13.0964 21.2793C12.5306 21.8213 11.9526 22.375 11.5 22.375C11.0469 22.375 10.4635 21.8177 9.9016 21.2773C9.33973 20.737 8.74953 20.1728 8.0302 19.8749C7.33918 19.5894 6.54961 19.577 5.78496 19.5656C4.99199 19.5543 4.16164 19.5418 3.81047 19.1895C3.4593 18.8372 3.4457 18.0125 3.43437 17.215C3.42305 16.4504 3.41059 15.6608 3.12512 14.9698C2.8278 14.252 2.26762 13.6672 1.72605 13.1019L1.7227 13.0984L1.72074 13.0964C1.17874 12.5306 0.625 11.9526 0.625 11.5C0.625 11.0469 1.18234 10.4635 1.7227 9.9016C2.26305 9.33973 2.82719 8.74953 3.12512 8.0302C3.41059 7.33918 3.42305 6.54961 3.43437 5.78496C3.4457 4.99199 3.45816 4.16164 3.81047 3.81047C4.16277 3.4593 4.98746 3.4457 5.78496 3.43437C6.54961 3.42305 7.33918 3.41059 8.0302 3.12512C8.74805 2.8278 9.33278 2.26762 9.8981 1.72605L9.9016 1.7227L9.90365 1.72074C10.4694 1.17874 11.0474 0.625 11.5 0.625C11.9531 0.625 12.5365 1.18234 13.0984 1.7227C13.6603 2.26305 14.2505 2.82719 14.9698 3.12512C15.6608 3.41059 16.4504 3.42305 17.215 3.43437C18.008 3.4457 18.8384 3.45816 19.1895 3.81047C19.5407 4.16277 19.5543 4.98746 19.5656 5.78496C19.577 6.54961 19.5894 7.33918 19.8749 8.0302C20.1722 8.74805 20.7324 9.33279 21.274 9.89811L21.2773 9.9016L21.2793 9.90364C21.8213 10.4694 22.375 11.0474 22.375 11.5C22.375 11.9531 21.8177 12.5365 21.2773 13.0984ZM16.8691 8.43421C16.8235 8.32419 16.7567 8.22424 16.6724 8.14008C16.5883 8.05582 16.4883 7.98897 16.3783 7.94337C16.2683 7.89776 16.1503 7.87429 16.0312 7.87429C15.9122 7.87429 15.7942 7.89776 15.6842 7.94337C15.5742 7.98897 15.4742 8.05582 15.3901 8.14008L9.6875 13.8438L7.60992 11.7651C7.43987 11.595 7.20924 11.4995 6.96875 11.4995C6.72826 11.4995 6.49763 11.595 6.32758 11.7651C6.15753 11.9351 6.062 12.1658 6.062 12.4062C6.062 12.6467 6.15753 12.8774 6.32758 13.0474L9.04633 15.7662C9.13049 15.8504 9.23044 15.9173 9.34046 15.9629C9.45048 16.0085 9.56841 16.032 9.6875 16.032C9.80659 16.032 9.92452 16.0085 10.0345 15.9629C10.1446 15.9173 10.2445 15.8504 10.3287 15.7662L16.6724 9.42242C16.7567 9.33826 16.8235 9.23831 16.8691 9.12829C16.9147 9.01827 16.9382 8.90034 16.9382 8.78125C16.9382 8.66216 16.9147 8.54423 16.8691 8.43421Z" fill="#DC6803"/>
<path d="M16.6724 8.14008C16.7567 8.22424 16.8235 8.32419 16.8691 8.43421C16.9147 8.54423 16.9382 8.66216 16.9382 8.78125C16.9382 8.90034 16.9147 9.01827 16.8691 9.12829C16.8235 9.23831 16.7567 9.33826 16.6724 9.42242L10.3287 15.7662C10.2445 15.8504 10.1446 15.9173 10.0345 15.9629C9.92452 16.0085 9.80659 16.032 9.6875 16.032C9.56841 16.032 9.45048 16.0085 9.34046 15.9629C9.23044 15.9173 9.13049 15.8504 9.04633 15.7662L6.32758 13.0474C6.15753 12.8774 6.062 12.6467 6.062 12.4062C6.062 12.1658 6.15753 11.9351 6.32758 11.7651C6.49763 11.595 6.72826 11.4995 6.96875 11.4995C7.20924 11.4995 7.43987 11.595 7.60992 11.7651L9.6875 13.8438L15.3901 8.14008C15.4742 8.05582 15.5742 7.98897 15.6842 7.94337C15.7942 7.89776 15.9122 7.87429 16.0312 7.87429C16.1503 7.87429 16.2683 7.89776 16.3783 7.94337C16.4883 7.98897 16.5883 8.05582 16.6724 8.14008Z" fill="white"/>
</svg>
