<svg width="39" height="47" viewBox="0 0 39 47" fill="none" xmlns="http://www.w3.org/2000/svg">
<path d="M0 10V43.74C0 45.21 1.237 47 2.76 47H35.978C37.497 47 39 45.21 39 43.74V10H0ZM19.46 36.776C13.6 36.776 8.849 32.182 8.849 26.513C8.849 20.844 13.6 16.25 19.46 16.25C25.32 16.25 30.071 20.844 30.071 26.513C30.071 32.183 25.32 36.776 19.46 36.776ZM35.978 0H2.76C1.237 0 0 1.033 0 2.505V8H39V2.505C39 1.033 37.497 0 35.978 0ZM13 6H2V2H13V6ZM32.146 5.72C30.897 5.72 29.888 4.741 29.888 3.532C29.888 2.325 30.897 1.346 32.146 1.346C33.395 1.346 34.407 2.325 34.407 3.532C34.406 4.74 33.395 5.72 32.146 5.72Z" fill="#016FED"/>
</svg>
