<svg width="44" height="44" viewBox="0 0 44 44" fill="none" xmlns="http://www.w3.org/2000/svg">
<path d="M40.3333 23.8333V38.5H36.6666V34.8333H30.3966C28.985 38.06 25.7583 40.3333 22 40.3333C18.2416 40.3333 15.015 38.06 13.6033 34.8333H7.33329V38.5H3.66663V23.8333H7.33329V27.5H13.6216C14.5383 25.3917 16.225 23.705 18.3333 22.77V20.1667H14.6666V16.5H29.3333V20.1667H25.6666V22.77C27.775 23.705 29.4616 25.3917 30.3783 27.5H36.6666V23.8333H40.3333ZM31.1666 3.66666H12.8333C11.825 3.66666 11 4.49166 11 5.49999C11 6.50832 11.825 7.33332 12.8333 7.33332H18.3333V9.16666H20.1666V14.6667H23.8333V9.16666H25.6666V7.33332H31.1666C32.175 7.33332 33 6.50832 33 5.49999C33 4.49166 32.175 3.66666 31.1666 3.66666Z" fill="#016FED"/>
</svg>
