<svg width="21" height="20" viewBox="0 0 21 20" fill="none" xmlns="http://www.w3.org/2000/svg">
<path d="M19.0771 19.7559C19.4025 20.0813 19.9302 20.0813 20.2556 19.7559C20.581 19.4305 20.581 18.9028 20.2556 18.5774L19.0771 19.7559ZM15.5977 8.38233C15.5977 12.0913 12.591 15.098 8.88203 15.098V16.7647C13.5115 16.7647 17.2644 13.0118 17.2644 8.38233H15.5977ZM8.88203 15.098C5.17306 15.098 2.16634 12.0913 2.16634 8.38233H0.499674C0.499674 13.0118 4.25258 16.7647 8.88203 16.7647V15.098ZM2.16634 8.38233C2.16634 4.67336 5.17306 1.66665 8.88203 1.66665V-2.03252e-05C4.25258 -2.03252e-05 0.499674 3.75289 0.499674 8.38233H2.16634ZM8.88203 1.66665C12.591 1.66665 15.5977 4.67336 15.5977 8.38233H17.2644C17.2644 3.75289 13.5115 -2.03252e-05 8.88203 -2.03252e-05V1.66665ZM13.6849 14.3637L19.0771 19.7559L20.2556 18.5774L14.8634 13.1852L13.6849 14.3637Z" fill="#667085"/>
</svg>
