<?xml version="1.0" standalone="no"?>
<!DOCTYPE svg PUBLIC "-//W3C//DTD SVG 20010904//EN"
 "http://www.w3.org/TR/2001/REC-SVG-20010904/DTD/svg10.dtd">
<svg version="1.0" xmlns="http://www.w3.org/2000/svg"
 width="500.000000pt" height="500.000000pt" viewBox="0 0 500.000000 500.000000"
 preserveAspectRatio="xMidYMid meet">

<g transform="translate(0.000000,500.000000) scale(0.100000,-0.100000)"
fill="blue" stroke="none">
<path d="M0 2500 l0 -2500 2500 0 2500 0 0 2500 0 2500 -2500 0 -2500 0 0
-2500z m2824 1641 c144 -29 266 -71 406 -137 184 -88 309 -174 453 -313 194
-187 329 -388 423 -632 29 -76 84 -265 84 -290 0 -5 -233 -9 -544 -9 l-544 0
-28 48 c-114 195 -385 337 -609 319 -300 -25 -537 -222 -612 -510 -25 -98 -21
-253 11 -352 57 -181 176 -319 346 -405 99 -50 164 -64 295 -63 102 0 132 4
200 26 171 56 324 186 395 335 l25 52 541 0 542 0 -15 -77 c-67 -368 -240
-685 -516 -950 -88 -84 -223 -190 -231 -182 -2 2 -17 32 -34 65 -17 34 -57 95
-90 135 -245 308 -689 445 -1101 339 -241 -61 -450 -205 -579 -399 -32 -47
-64 -101 -71 -118 -7 -18 -19 -33 -26 -33 -6 0 -44 24 -83 53 -345 256 -580
622 -674 1050 -20 90 -23 130 -23 347 0 217 3 257 23 347 32 149 75 272 142
408 252 518 725 867 1299 960 133 22 455 14 595 -14z"/>
</g>
</svg>
